<svg xmlns="http://www.w3.org/2000/svg" viewBox="0 0 200 580" width="200" height="580"><path fill="#fdfaf3" stroke="#4a3520" stroke-width="1.0" stroke-linejoin="round" stroke-linecap="round" d="M 94 60 L 93 84 C 84 88 76 94 71 103 C 74 116 78 126 80 150 L 77 244 C 73 272 71 292 73 308 L 96 314 L 100 308 L 104 314 C 127 292 129 272 123 244 L 120 150 C 122 126 126 116 129 103 C 124 94 116 88 107 84 L 106 60 Z"/><path fill="#fdfaf3" stroke="#4a3520" stroke-width="1.0" stroke-linejoin="round" stroke-linecap="round" d="M 81 102 C 63 108 57 152 56 200 C 56 246 60 278 62 301 L 73 301 C 72 278 69 246 69 200 C 69 152 73 118 81 110 Z"/><path d="M 58 296 C 56 307, 57 311, 59 312 L 71 312 C 73 311, 74 307, 72 296 Z" fill="#fdfaf3" stroke="#4a3520" stroke-width="1.0" stroke-linejoin="round"/><path d="M 60.5 299 L 61.4 310" stroke="#4a3520" stroke-width="0.6" fill="none" opacity="0.7"/><path d="M 63.5 299 L 63.8 310" stroke="#4a3520" stroke-width="0.6" fill="none" opacity="0.7"/><path d="M 66.5 299 L 66.2 310" stroke="#4a3520" stroke-width="0.6" fill="none" opacity="0.7"/><path d="M 69.5 299 L 68.6 310" stroke="#4a3520" stroke-width="0.6" fill="none" opacity="0.7"/><g transform="rotate(16 59.6 309)"><path d="M 58.1 309.0 L 58.1 323.5 A 1.5 1.5 0 0 0 61.1 323.5 L 61.1 309.0 A 1.5 1.5 0 0 0 58.1 309.0 Z" fill="#fdfaf3" stroke="#4a3520" stroke-width="1.0" stroke-linejoin="round"/><path d="M 58.6 315.7 q 1.0 0.8 2.0 0" fill="none" stroke="#4a3520" stroke-width="0.6"/><path d="M 58.6 320.2 q 1.0 0.8 2.0 0" fill="none" stroke="#4a3520" stroke-width="0.6"/><path d="M 58.3 322.1 q 1.3 -1.5 2.6 0" fill="none" stroke="#4a3520" stroke-width="0.6"/></g><g transform="rotate(6 63.1 309)"><path d="M 61.6 309.0 L 61.6 326.5 A 1.5 1.5 0 0 0 64.6 326.5 L 64.6 309.0 A 1.5 1.5 0 0 0 61.6 309.0 Z" fill="#fdfaf3" stroke="#4a3520" stroke-width="1.0" stroke-linejoin="round"/><path d="M 62.1 317.0 q 1.0 0.8 2.0 0" fill="none" stroke="#4a3520" stroke-width="0.6"/><path d="M 62.1 322.3 q 1.0 0.8 2.0 0" fill="none" stroke="#4a3520" stroke-width="0.6"/><path d="M 61.8 324.6 q 1.3 -1.5 2.6 0" fill="none" stroke="#4a3520" stroke-width="0.6"/></g><g transform="rotate(-5 66.9 309)"><path d="M 65.4 309.0 L 65.4 326.5 A 1.5 1.5 0 0 0 68.4 326.5 L 68.4 309.0 A 1.5 1.5 0 0 0 65.4 309.0 Z" fill="#fdfaf3" stroke="#4a3520" stroke-width="1.0" stroke-linejoin="round"/><path d="M 65.9 317.0 q 1.0 0.8 2.0 0" fill="none" stroke="#4a3520" stroke-width="0.6"/><path d="M 65.9 322.3 q 1.0 0.8 2.0 0" fill="none" stroke="#4a3520" stroke-width="0.6"/><path d="M 65.6 324.6 q 1.3 -1.5 2.6 0" fill="none" stroke="#4a3520" stroke-width="0.6"/></g><g transform="rotate(-15 70.4 309)"><path d="M 68.9 309.0 L 68.9 323.5 A 1.5 1.5 0 0 0 71.9 323.5 L 71.9 309.0 A 1.5 1.5 0 0 0 68.9 309.0 Z" fill="#fdfaf3" stroke="#4a3520" stroke-width="1.0" stroke-linejoin="round"/><path d="M 69.4 315.7 q 1.0 0.8 2.0 0" fill="none" stroke="#4a3520" stroke-width="0.6"/><path d="M 69.4 320.2 q 1.0 0.8 2.0 0" fill="none" stroke="#4a3520" stroke-width="0.6"/><path d="M 69.1 322.1 q 1.3 -1.5 2.6 0" fill="none" stroke="#4a3520" stroke-width="0.6"/></g><g transform="rotate(60 73.5 304)"><path d="M 71.8 304.0 L 71.8 313.4 A 1.6 1.6 0 0 0 75.2 313.4 L 75.2 304.0 A 1.6 1.6 0 0 0 71.8 304.0 Z" fill="#fdfaf3" stroke="#4a3520" stroke-width="1.0" stroke-linejoin="round"/><path d="M 72.4 308.6 q 1.1 0.9 2.2 0" fill="none" stroke="#4a3520" stroke-width="0.6"/><path d="M 72.4 311.7 q 1.1 0.9 2.2 0" fill="none" stroke="#4a3520" stroke-width="0.6"/><path d="M 72.2 313.0 q 1.3 -1.5 2.6 0" fill="none" stroke="#4a3520" stroke-width="0.6"/></g><path fill="#fdfaf3" stroke="#4a3520" stroke-width="1.0" stroke-linejoin="round" stroke-linecap="round" d="M 74 308 C 66 362 68 424 74 472 C 76 500 78 522 81 536 L 95 536 C 97 520 98 500 98 472 C 99 424 99 362 99 312 Z"/><path d="M 82 534 C 79 542, 79 548, 81 552 L 95 552 C 97 548, 97 542, 94 534 Z" fill="#fdfaf3" stroke="#4a3520" stroke-width="1.0" stroke-linejoin="round"/><circle cx="81.5" cy="535" r="1.6" fill="none" stroke="#4a3520" stroke-width="0.6"/><circle cx="94.5" cy="536" r="1.4" fill="none" stroke="#4a3520" stroke-width="0.6"/><path d="M 86.4 537 L 84 549" stroke="#4a3520" stroke-width="0.6" fill="none" opacity="0.7"/><path d="M 87.4 537 L 86.5 549" stroke="#4a3520" stroke-width="0.6" fill="none" opacity="0.7"/><path d="M 88.6 537 L 89.5 549" stroke="#4a3520" stroke-width="0.6" fill="none" opacity="0.7"/><path d="M 89.6 537 L 92 549" stroke="#4a3520" stroke-width="0.6" fill="none" opacity="0.7"/><g transform="rotate(-3.5999999999999996 82 550)"><path d="M 80.7 550.0 L 80.7 555.6 A 1.4 1.4 0 0 0 83.3 555.6 L 83.3 550.0 A 1.4 1.4 0 0 0 80.7 550.0 Z" fill="#fdfaf3" stroke="#4a3520" stroke-width="1.0" stroke-linejoin="round"/><path d="M 81.1 552.9 q 0.9 0.8 1.8 0" fill="none" stroke="#4a3520" stroke-width="0.6"/><path d="M 81.1 554.9 q 0.9 0.8 1.8 0" fill="none" stroke="#4a3520" stroke-width="0.6"/><path d="M 80.7 555.7 q 1.3 -1.5 2.6 0" fill="none" stroke="#4a3520" stroke-width="0.6"/></g><g transform="rotate(-1.7999999999999998 85 550)"><path d="M 83.7 550.0 L 83.7 556.6 A 1.4 1.4 0 0 0 86.3 556.6 L 86.3 550.0 A 1.4 1.4 0 0 0 83.7 550.0 Z" fill="#fdfaf3" stroke="#4a3520" stroke-width="1.0" stroke-linejoin="round"/><path d="M 84.1 553.4 q 0.9 0.8 1.8 0" fill="none" stroke="#4a3520" stroke-width="0.6"/><path d="M 84.1 555.6 q 0.9 0.8 1.8 0" fill="none" stroke="#4a3520" stroke-width="0.6"/><path d="M 83.7 556.6 q 1.3 -1.5 2.6 0" fill="none" stroke="#4a3520" stroke-width="0.6"/></g><g transform="rotate(0.0 88 550)"><path d="M 86.7 550.0 L 86.7 556.6 A 1.4 1.4 0 0 0 89.3 556.6 L 89.3 550.0 A 1.4 1.4 0 0 0 86.7 550.0 Z" fill="#fdfaf3" stroke="#4a3520" stroke-width="1.0" stroke-linejoin="round"/><path d="M 87.1 553.4 q 0.9 0.8 1.8 0" fill="none" stroke="#4a3520" stroke-width="0.6"/><path d="M 87.1 555.6 q 0.9 0.8 1.8 0" fill="none" stroke="#4a3520" stroke-width="0.6"/><path d="M 86.7 556.6 q 1.3 -1.5 2.6 0" fill="none" stroke="#4a3520" stroke-width="0.6"/></g><g transform="rotate(1.7999999999999998 91 550)"><path d="M 89.7 550.0 L 89.7 555.6 A 1.4 1.4 0 0 0 92.3 555.6 L 92.3 550.0 A 1.4 1.4 0 0 0 89.7 550.0 Z" fill="#fdfaf3" stroke="#4a3520" stroke-width="1.0" stroke-linejoin="round"/><path d="M 90.1 552.9 q 0.9 0.8 1.8 0" fill="none" stroke="#4a3520" stroke-width="0.6"/><path d="M 90.1 554.9 q 0.9 0.8 1.8 0" fill="none" stroke="#4a3520" stroke-width="0.6"/><path d="M 89.7 555.7 q 1.3 -1.5 2.6 0" fill="none" stroke="#4a3520" stroke-width="0.6"/></g><g transform="rotate(3.36 93.6 550)"><path d="M 92.2 550.0 L 92.2 554.6 A 1.4 1.4 0 0 0 94.9 554.6 L 94.9 550.0 A 1.4 1.4 0 0 0 92.2 550.0 Z" fill="#fdfaf3" stroke="#4a3520" stroke-width="1.0" stroke-linejoin="round"/><path d="M 92.7 552.5 q 0.9 0.8 1.8 0" fill="none" stroke="#4a3520" stroke-width="0.6"/><path d="M 92.7 554.2 q 0.9 0.8 1.8 0" fill="none" stroke="#4a3520" stroke-width="0.6"/><path d="M 92.3 554.9 q 1.3 -1.5 2.6 0" fill="none" stroke="#4a3520" stroke-width="0.6"/></g><path fill="#fdfaf3" stroke="#4a3520" stroke-width="1.0" stroke-linejoin="round" stroke-linecap="round" d="M 119 102 C 137 108 143 152 144 200 C 144 246 140 278 138 301 L 127 301 C 128 278 131 246 131 200 C 131 152 127 118 119 110 Z"/><path d="M 128 296 C 126 307, 127 311, 129 312 L 141 312 C 143 311, 144 307, 142 296 Z" fill="#fdfaf3" stroke="#4a3520" stroke-width="1.0" stroke-linejoin="round"/><path d="M 130.5 299 L 131.4 310" stroke="#4a3520" stroke-width="0.6" fill="none" opacity="0.7"/><path d="M 133.5 299 L 133.8 310" stroke="#4a3520" stroke-width="0.6" fill="none" opacity="0.7"/><path d="M 136.5 299 L 136.2 310" stroke="#4a3520" stroke-width="0.6" fill="none" opacity="0.7"/><path d="M 139.5 299 L 138.6 310" stroke="#4a3520" stroke-width="0.6" fill="none" opacity="0.7"/><g transform="rotate(-16 129.6 309)"><path d="M 128.1 309.0 L 128.1 323.5 A 1.5 1.5 0 0 0 131.1 323.5 L 131.1 309.0 A 1.5 1.5 0 0 0 128.1 309.0 Z" fill="#fdfaf3" stroke="#4a3520" stroke-width="1.0" stroke-linejoin="round"/><path d="M 128.6 315.7 q 1.0 0.8 2.0 0" fill="none" stroke="#4a3520" stroke-width="0.6"/><path d="M 128.6 320.2 q 1.0 0.8 2.0 0" fill="none" stroke="#4a3520" stroke-width="0.6"/><path d="M 128.3 322.1 q 1.3 -1.5 2.6 0" fill="none" stroke="#4a3520" stroke-width="0.6"/></g><g transform="rotate(-6 133.1 309)"><path d="M 131.6 309.0 L 131.6 326.5 A 1.5 1.5 0 0 0 134.6 326.5 L 134.6 309.0 A 1.5 1.5 0 0 0 131.6 309.0 Z" fill="#fdfaf3" stroke="#4a3520" stroke-width="1.0" stroke-linejoin="round"/><path d="M 132.1 317.0 q 1.0 0.8 2.0 0" fill="none" stroke="#4a3520" stroke-width="0.6"/><path d="M 132.1 322.3 q 1.0 0.8 2.0 0" fill="none" stroke="#4a3520" stroke-width="0.6"/><path d="M 131.8 324.6 q 1.3 -1.5 2.6 0" fill="none" stroke="#4a3520" stroke-width="0.6"/></g><g transform="rotate(5 136.9 309)"><path d="M 135.4 309.0 L 135.4 326.5 A 1.5 1.5 0 0 0 138.4 326.5 L 138.4 309.0 A 1.5 1.5 0 0 0 135.4 309.0 Z" fill="#fdfaf3" stroke="#4a3520" stroke-width="1.0" stroke-linejoin="round"/><path d="M 135.9 317.0 q 1.0 0.8 2.0 0" fill="none" stroke="#4a3520" stroke-width="0.6"/><path d="M 135.9 322.3 q 1.0 0.8 2.0 0" fill="none" stroke="#4a3520" stroke-width="0.6"/><path d="M 135.6 324.6 q 1.3 -1.5 2.6 0" fill="none" stroke="#4a3520" stroke-width="0.6"/></g><g transform="rotate(15 140.4 309)"><path d="M 138.9 309.0 L 138.9 323.5 A 1.5 1.5 0 0 0 141.9 323.5 L 141.9 309.0 A 1.5 1.5 0 0 0 138.9 309.0 Z" fill="#fdfaf3" stroke="#4a3520" stroke-width="1.0" stroke-linejoin="round"/><path d="M 139.4 315.7 q 1.0 0.8 2.0 0" fill="none" stroke="#4a3520" stroke-width="0.6"/><path d="M 139.4 320.2 q 1.0 0.8 2.0 0" fill="none" stroke="#4a3520" stroke-width="0.6"/><path d="M 139.1 322.1 q 1.3 -1.5 2.6 0" fill="none" stroke="#4a3520" stroke-width="0.6"/></g><g transform="rotate(-60 126.5 304)"><path d="M 124.8 304.0 L 124.8 313.4 A 1.6 1.6 0 0 0 128.2 313.4 L 128.2 304.0 A 1.6 1.6 0 0 0 124.8 304.0 Z" fill="#fdfaf3" stroke="#4a3520" stroke-width="1.0" stroke-linejoin="round"/><path d="M 125.4 308.6 q 1.1 0.9 2.2 0" fill="none" stroke="#4a3520" stroke-width="0.6"/><path d="M 125.4 311.7 q 1.1 0.9 2.2 0" fill="none" stroke="#4a3520" stroke-width="0.6"/><path d="M 125.2 313.0 q 1.3 -1.5 2.6 0" fill="none" stroke="#4a3520" stroke-width="0.6"/></g><path fill="#fdfaf3" stroke="#4a3520" stroke-width="1.0" stroke-linejoin="round" stroke-linecap="round" d="M 126 308 C 134 362 132 424 126 472 C 124 500 122 522 119 536 L 105 536 C 103 520 102 500 102 472 C 101 424 101 362 101 312 Z"/><path d="M 106 534 C 103 542, 103 548, 105 552 L 119 552 C 121 548, 121 542, 118 534 Z" fill="#fdfaf3" stroke="#4a3520" stroke-width="1.0" stroke-linejoin="round"/><circle cx="105.5" cy="535" r="1.6" fill="none" stroke="#4a3520" stroke-width="0.6"/><circle cx="118.5" cy="536" r="1.4" fill="none" stroke="#4a3520" stroke-width="0.6"/><path d="M 110.4 537 L 108 549" stroke="#4a3520" stroke-width="0.6" fill="none" opacity="0.7"/><path d="M 111.4 537 L 110.5 549" stroke="#4a3520" stroke-width="0.6" fill="none" opacity="0.7"/><path d="M 112.6 537 L 113.5 549" stroke="#4a3520" stroke-width="0.6" fill="none" opacity="0.7"/><path d="M 113.6 537 L 116 549" stroke="#4a3520" stroke-width="0.6" fill="none" opacity="0.7"/><g transform="rotate(-3.5999999999999996 106 550)"><path d="M 104.7 550.0 L 104.7 555.6 A 1.4 1.4 0 0 0 107.3 555.6 L 107.3 550.0 A 1.4 1.4 0 0 0 104.7 550.0 Z" fill="#fdfaf3" stroke="#4a3520" stroke-width="1.0" stroke-linejoin="round"/><path d="M 105.1 552.9 q 0.9 0.8 1.8 0" fill="none" stroke="#4a3520" stroke-width="0.6"/><path d="M 105.1 554.9 q 0.9 0.8 1.8 0" fill="none" stroke="#4a3520" stroke-width="0.6"/><path d="M 104.7 555.7 q 1.3 -1.5 2.6 0" fill="none" stroke="#4a3520" stroke-width="0.6"/></g><g transform="rotate(-1.7999999999999998 109 550)"><path d="M 107.7 550.0 L 107.7 556.6 A 1.4 1.4 0 0 0 110.3 556.6 L 110.3 550.0 A 1.4 1.4 0 0 0 107.7 550.0 Z" fill="#fdfaf3" stroke="#4a3520" stroke-width="1.0" stroke-linejoin="round"/><path d="M 108.1 553.4 q 0.9 0.8 1.8 0" fill="none" stroke="#4a3520" stroke-width="0.6"/><path d="M 108.1 555.6 q 0.9 0.8 1.8 0" fill="none" stroke="#4a3520" stroke-width="0.6"/><path d="M 107.7 556.6 q 1.3 -1.5 2.6 0" fill="none" stroke="#4a3520" stroke-width="0.6"/></g><g transform="rotate(0.0 112 550)"><path d="M 110.7 550.0 L 110.7 556.6 A 1.4 1.4 0 0 0 113.3 556.6 L 113.3 550.0 A 1.4 1.4 0 0 0 110.7 550.0 Z" fill="#fdfaf3" stroke="#4a3520" stroke-width="1.0" stroke-linejoin="round"/><path d="M 111.1 553.4 q 0.9 0.8 1.8 0" fill="none" stroke="#4a3520" stroke-width="0.6"/><path d="M 111.1 555.6 q 0.9 0.8 1.8 0" fill="none" stroke="#4a3520" stroke-width="0.6"/><path d="M 110.7 556.6 q 1.3 -1.5 2.6 0" fill="none" stroke="#4a3520" stroke-width="0.6"/></g><g transform="rotate(1.7999999999999998 115 550)"><path d="M 113.7 550.0 L 113.7 555.6 A 1.4 1.4 0 0 0 116.3 555.6 L 116.3 550.0 A 1.4 1.4 0 0 0 113.7 550.0 Z" fill="#fdfaf3" stroke="#4a3520" stroke-width="1.0" stroke-linejoin="round"/><path d="M 114.1 552.9 q 0.9 0.8 1.8 0" fill="none" stroke="#4a3520" stroke-width="0.6"/><path d="M 114.1 554.9 q 0.9 0.8 1.8 0" fill="none" stroke="#4a3520" stroke-width="0.6"/><path d="M 113.7 555.7 q 1.3 -1.5 2.6 0" fill="none" stroke="#4a3520" stroke-width="0.6"/></g><g transform="rotate(3.36 117.6 550)"><path d="M 116.2 550.0 L 116.2 554.6 A 1.4 1.4 0 0 0 118.9 554.6 L 118.9 550.0 A 1.4 1.4 0 0 0 116.2 550.0 Z" fill="#fdfaf3" stroke="#4a3520" stroke-width="1.0" stroke-linejoin="round"/><path d="M 116.7 552.5 q 0.9 0.8 1.8 0" fill="none" stroke="#4a3520" stroke-width="0.6"/><path d="M 116.7 554.2 q 0.9 0.8 1.8 0" fill="none" stroke="#4a3520" stroke-width="0.6"/><path d="M 116.3 554.9 q 1.3 -1.5 2.6 0" fill="none" stroke="#4a3520" stroke-width="0.6"/></g><path fill="#fdfaf3" stroke="#4a3520" stroke-width="1.0" stroke-linejoin="round" stroke-linecap="round" d="M 100 12 C 83 12 76 27 77 41 C 78 55 87 70 100 70 C 113 70 122 55 123 41 C 124 27 117 12 100 12 Z"/><path fill="none" stroke="#4a3520" stroke-width="0.6" stroke-linecap="round" d="M 72 96 C 84 108 94 116 100 150"/><path fill="none" stroke="#4a3520" stroke-width="0.6" stroke-linecap="round" d="M 78 118 L 86 150"/><path fill="none" stroke="#4a3520" stroke-width="0.6" stroke-linecap="round" d="M 93 100 C 91 160 92 210 95 250"/><path fill="none" stroke="#4a3520" stroke-width="0.6" stroke-linecap="round" d="M 76 316 C 84 326 92 326 100 318"/><path fill="none" stroke="#4a3520" stroke-width="0.6" stroke-linecap="round" d="M 86 360 C 83 410 85 450 88 478"/><path fill="none" stroke="#4a3520" stroke-width="0.6" stroke-linecap="round" d="M 88 452 C 83 466 84 488 89 500"/><path fill="none" stroke="#4a3520" stroke-width="0.6" stroke-linecap="round" d="M 128 96 C 116 108 106 116 100 150"/><path fill="none" stroke="#4a3520" stroke-width="0.6" stroke-linecap="round" d="M 122 118 L 114 150"/><path fill="none" stroke="#4a3520" stroke-width="0.6" stroke-linecap="round" d="M 107 100 C 109 160 108 210 105 250"/><path fill="none" stroke="#4a3520" stroke-width="0.6" stroke-linecap="round" d="M 124 316 C 116 326 108 326 100 318"/><path fill="none" stroke="#4a3520" stroke-width="0.6" stroke-linecap="round" d="M 114 360 C 117 410 115 450 112 478"/><path fill="none" stroke="#4a3520" stroke-width="0.6" stroke-linecap="round" d="M 112 452 C 117 466 116 488 111 500"/><path d="M 93 14 C 95 5 105 5 107 14 Z" fill="#fdfaf3" stroke="#4a3520" stroke-width="1.0"/><path fill="none" stroke="#4a3520" stroke-width="0.6" stroke-linecap="round" d="M 80 32 C 86 22 114 22 120 32"/><path fill="none" stroke="#4a3520" stroke-width="0.6" stroke-linecap="round" d="M 84 24 q 0 12 1.9 22" opacity="0.6"/><path fill="none" stroke="#4a3520" stroke-width="0.6" stroke-linecap="round" d="M 90 24 q 0 12 1.2 22" opacity="0.6"/><path fill="none" stroke="#4a3520" stroke-width="0.6" stroke-linecap="round" d="M 100 24 q 0 12 0.0 22" opacity="0.6"/><path fill="none" stroke="#4a3520" stroke-width="0.6" stroke-linecap="round" d="M 110 24 q 0 12 -1.2 22" opacity="0.6"/><path fill="none" stroke="#4a3520" stroke-width="0.6" stroke-linecap="round" d="M 116 24 q 0 12 -1.9 22" opacity="0.6"/><line x1="100" y1="92" x2="100" y2="312" stroke="#4a3520" stroke-width="0.6" stroke-dasharray="3 4" opacity="0.7"/></svg>